<svg xmlns="http://www.w3.org/2000/svg" version="1.1" xmlns:xlink="http://www.w3.org/1999/xlink" xmlns:svgjs="http://svgjs.dev/svgjs" width="1000" height="1000" viewBox="0 0 1000 1000"><rect width="1000" height="1000" fill="#2a160c"></rect><g transform="matrix(0.7,0,0,0.7,149.57575757575756,409.3586490987538)"><svg viewBox="0 0 396 103" data-background-color="#2a160c" preserveAspectRatio="xMidYMid meet" height="260" width="1000" xmlns="http://www.w3.org/2000/svg" xmlns:xlink="http://www.w3.org/1999/xlink"><g id="tight-bounds" transform="matrix(1,0,0,1,0.2400000000000091,-0.20297174270132246)"><svg viewBox="0 0 395.52 103.40594348540264" height="103.40594348540264" width="395.52"><g><svg viewBox="0 0 395.52 103.40594348540264" height="103.40594348540264" width="395.52"><g><svg viewBox="0 0 395.52 103.40594348540264" height="103.40594348540264" width="395.52"><g><svg viewBox="0 0 395.52 103.40594348540264" height="103.40594348540264" width="395.52"><g><svg viewBox="0 0 395.52 103.40594348540264" height="103.40594348540264" width="395.52"><rect width="395.52" height="103.40594348540264" x="0" y="0" opacity="1" fill="#883d1a" data-fill-palette-color="tertiary"></rect><g transform="matrix(1,0,0,1,23.607599999999998,23.607599999999994)"><svg width="348.3048" viewBox="1.9500000476837158 -37.599998474121094 236.15013122558594 38.099998474121094" height="56.190743485402656" data-palette-color="#2a160c"><path d="M1.95-33.2L1.95-36.4Q1.95-36.75 2.13-36.93 2.3-37.1 2.7-37.1L2.7-37.1 30.15-37.1Q30.55-37.1 30.7-36.93 30.85-36.75 30.85-36.4L30.85-36.4 30.85-33.2Q30.85-32.6 30.15-32.6L30.15-32.6 20.25-32.6Q19.7-32.6 19.7-32.15L19.7-32.15 19.7-0.75Q19.7 0 19.05 0L19.05 0 14.35 0Q13.7 0 13.7-0.7L13.7-0.7 13.7-32.05Q13.7-32.6 13.15-32.6L13.15-32.6 2.65-32.6Q1.95-32.6 1.95-33.2L1.95-33.2ZM37.2-36.35L37.2-36.35Q37.2-37.1 37.9-37.1L37.9-37.1 61.2-37.1Q61.8-37.1 61.8-36.45L61.8-36.45 61.75-33.3Q61.75-32.55 61-32.55L61-32.55 44-32.55Q43.25-32.55 43.25-31.9L43.25-31.9 43.25-21.6Q43.25-20.95 43.9-20.95L43.9-20.95 56.1-20.95Q56.75-20.95 56.75-20.35L56.75-20.35 56.75-17Q56.75-16.75 56.62-16.6 56.5-16.45 56.1-16.45L56.1-16.45 43.85-16.45Q43.25-16.45 43.25-15.9L43.25-15.9 43.25-5.1Q43.25-4.55 43.75-4.55L43.75-4.55 61.7-4.55Q62.4-4.55 62.4-3.95L62.4-3.95 62.4-0.65Q62.4-0.35 62.25-0.18 62.1 0 61.7 0L61.7 0 38.05 0Q37.2 0 37.2-0.8L37.2-0.8 37.2-36.35ZM89.5-29.6L89.5-29.6Q88.2-31.05 86.3-32.1 84.4-33.15 81.35-33.15L81.35-33.15Q77.8-33.15 75.82-31.68 73.85-30.2 73.85-27.6L73.85-27.6Q73.85-26.9 74.2-25.95 74.55-25 75.62-24.13 76.7-23.25 78.75-22.5L78.75-22.5 86.25-20.15Q90.8-18.75 92.77-16.18 94.75-13.6 94.75-10.15L94.75-10.15Q94.75-6.85 93.07-4.45 91.4-2.05 88.32-0.78 85.25 0.5 81 0.5L81 0.5Q77.85 0.5 75.17-0.23 72.5-0.95 70.42-2.38 68.35-3.8 66.95-5.85L66.95-5.85Q66.75-6.2 66.8-6.5 66.85-6.8 67.25-7.1L67.25-7.1 69.7-8.8Q70.25-9.15 70.55-9.1 70.85-9.05 71.1-8.75L71.1-8.75Q72.35-7.15 73.62-6.05 74.9-4.95 76.57-4.42 78.25-3.9 80.65-3.9L80.65-3.9Q84.4-3.9 86.67-5.23 88.95-6.55 88.95-9.45L88.95-9.45Q88.95-10.6 88.5-11.53 88.05-12.45 86.95-13.23 85.85-14 83.75-14.75L83.75-14.75 76.2-17.2Q73.35-18.15 71.57-19.65 69.8-21.15 68.95-23.05 68.1-24.95 68.1-26.95L68.1-26.95Q68.1-30.15 69.75-32.55 71.4-34.95 74.35-36.27 77.3-37.6 81.25-37.6L81.25-37.6Q83.9-37.6 86.12-36.98 88.35-36.35 90.2-35.23 92.05-34.1 93.35-32.55L93.35-32.55Q93.55-32.3 93.62-32.05 93.7-31.8 93.35-31.5L93.35-31.5 90.5-29.3Q90.2-29.1 90.02-29.18 89.85-29.25 89.5-29.6L89.5-29.6ZM98.24-33.2L98.24-36.4Q98.24-36.75 98.42-36.93 98.59-37.1 98.99-37.1L98.99-37.1 126.44-37.1Q126.84-37.1 126.99-36.93 127.14-36.75 127.14-36.4L127.14-36.4 127.14-33.2Q127.14-32.6 126.44-32.6L126.44-32.6 116.54-32.6Q115.99-32.6 115.99-32.15L115.99-32.15 115.99-0.75Q115.99 0 115.34 0L115.34 0 110.64 0Q109.99 0 109.99-0.7L109.99-0.7 109.99-32.05Q109.99-32.6 109.44-32.6L109.44-32.6 98.94-32.6Q98.24-32.6 98.24-33.2L98.24-33.2ZM133.49-36.35L133.49-36.35Q133.49-37.1 134.19-37.1L134.19-37.1 157.04-37.1Q157.64-37.1 157.64-36.45L157.64-36.45 157.59-33.3Q157.59-32.55 156.84-32.55L156.84-32.55 140.29-32.55Q139.54-32.55 139.54-31.9L139.54-31.9 139.54-21Q139.54-20.4 140.19-20.4L140.19-20.4 152.74-20.4Q153.34-20.4 153.34-19.8L153.34-19.8 153.34-16.5Q153.34-15.95 152.74-15.95L152.74-15.95 140.14-15.95Q139.54-15.95 139.54-15.35L139.54-15.35 139.54-0.8Q139.54 0 138.64 0L138.64 0 134.34 0Q133.84 0 133.67-0.18 133.49-0.35 133.49-0.8L133.49-0.8 133.49-36.35ZM164.04-36.35L164.04-36.35Q164.04-37.1 164.74-37.1L164.74-37.1 169.44-37.1Q170.09-37.1 170.09-36.35L170.09-36.35 170.09-5.1Q170.09-4.55 170.59-4.55L170.59-4.55 187.49-4.55Q188.19-4.55 188.19-3.95L188.19-3.95 188.19-0.65Q188.19-0.35 188.01-0.18 187.84 0 187.49 0L187.49 0 164.89 0Q164.39 0 164.21-0.2 164.04-0.4 164.04-0.8L164.04-0.8 164.04-36.35ZM195.24-37.1L199.94-37.1Q200.59-37.1 200.59-36.35L200.59-36.35 200.59-0.95Q200.59-0.4 200.36-0.2 200.14 0 199.54 0L199.54 0 195.44 0Q194.89 0 194.71-0.18 194.54-0.35 194.54-0.8L194.54-0.8 194.54-36.35Q194.54-37.1 195.24-37.1L195.24-37.1ZM237.68-1.35L237.68-1.35Q238.23-0.55 238.06-0.28 237.88 0 237.28 0L237.28 0 232.53 0Q231.78 0 231.43-0.55L231.43-0.55 222.73-13.9Q222.38-14.4 222.16-14.43 221.93-14.45 221.53-13.85L221.53-13.85 212.93-0.55Q212.78-0.25 212.48-0.13 212.18 0 211.78 0L211.78 0 207.83 0Q207.28 0 207.11-0.28 206.93-0.55 207.43-1.35L207.43-1.35 218.63-18.2Q218.88-18.6 218.86-18.88 218.83-19.15 218.58-19.55L218.58-19.55 207.63-36.15Q207.43-36.45 207.51-36.77 207.58-37.1 208.03-37.1L208.03-37.1 213.08-37.1Q213.58-37.1 213.81-36.98 214.03-36.85 214.18-36.55L214.18-36.55 222.13-24.2Q222.38-23.85 222.61-23.85 222.83-23.85 223.08-24.2L223.08-24.2 231.03-36.55Q231.23-36.85 231.43-36.98 231.63-37.1 232.08-37.1L232.08-37.1 236.48-37.1Q236.93-37.1 236.98-36.83 237.03-36.55 236.78-36.25L236.78-36.25 226.03-20.1Q225.78-19.75 225.81-19.5 225.83-19.25 226.03-18.9L226.03-18.9 237.68-1.35Z" opacity="1" transform="matrix(1,0,0,1,0,0)" fill="#2a160c" class="undefined-text-0" data-fill-palette-color="quaternary" id="text-0"></path></svg></g></svg></g></svg></g></svg></g></svg></g><defs></defs></svg><rect width="395.52" height="103.40594348540264" fill="none" stroke="none" visibility="hidden"></rect></g></svg></g></svg>